<?xml version="1.0" encoding="UTF-8"?><svg id="a" xmlns="http://www.w3.org/2000/svg" width="456" height="66.98" viewBox="0 0 456 66.98"><g id="b"><g><rect x="222.44" y="50.66" width="3.34" height=".92" style="fill:#040000;"/><path d="M210.16,48.45c-.07-.37-.17-.58-.25-.72-.18-.33-.57-.83-1.48-.83-.53-.02-1.03,.2-1.38,.59-.43,.46-.81,1.24-.81,2.63,0,.93,.19,2.02,.92,2.69,.36,.32,.83,.5,1.31,.48,.37,0,.74-.11,1.04-.33,.66-.52,.72-1.49,.74-1.68h1.17c0,.28-.05,1.23-.59,2.01-.31,.45-.98,1.12-2.32,1.12-.56,0-1.1-.12-1.61-.35-.92-.46-2.03-1.57-2.03-3.93,0-2.06,.79-3.14,1.5-3.69,.83-.63,1.7-.67,2.08-.67,1.09,0,2.09,.47,2.56,1.5,.18,.38,.24,.76,.28,1.17h-1.13Z" style="fill:#040000;"/><path d="M215.22,46.36c.57-.38,1.25-.59,1.94-.58,1.25,0,2.02,.59,2.36,.93,.57,.54,1.23,1.57,1.23,3.39,0,.5-.02,2.67-1.72,3.78-.55,.36-1.2,.55-1.87,.54-.6,0-1.19-.15-1.71-.45-1.85-1.06-1.89-3.38-1.89-3.87,0-1.41,.44-2.91,1.67-3.74m.11,5.76c.12,.24,.28,.46,.47,.65,.36,.36,.85,.55,1.36,.54,.77,0,1.37-.39,1.75-1.05,.22-.38,.48-1.1,.48-2.16,0-.24,.02-1.83-.89-2.69-.21-.2-.63-.52-1.35-.52-.35,0-.69,.08-.99,.26-1.29,.76-1.24,2.75-1.24,2.95,0,.24,0,1.22,.4,2.02" style="fill:#040000;"/><polygon points="232.64 49.4 232.64 50.51 229.28 50.51 229.28 53.17 233.04 53.17 233.04 54.28 228 54.28 228 45.94 232.93 45.94 232.93 47.03 229.28 47.03 229.28 49.4 232.64 49.4" style="fill:#040000;"/><polygon points="237.08 45.94 240.76 52.3 240.76 45.94 241.98 45.94 241.98 54.28 240.65 54.28 236.93 47.91 236.93 54.28 235.7 54.28 235.7 45.94 237.08 45.94" style="fill:#040000;"/><path d="M251.41,50.05v3.45c-.21,.15-.42,.28-.65,.4-.71,.34-1.49,.53-2.28,.53-1.49,0-2.32-.67-2.72-1.13-.45-.52-1-1.53-1-3.2,0-.47,0-2.72,1.72-3.79,.57-.34,1.21-.52,1.88-.52,1.05,0,2.09,.43,2.6,1.41,.15,.28,.27,.6,.33,1.25h-1.15c-.06-.3-.2-1.16-1.11-1.44-.21-.07-.43-.1-.65-.11-.67,0-1.31,.32-1.69,.87-.45,.65-.59,1.59-.59,2.35,0,1.51,.54,3.19,2.39,3.19,.6,0,1.3-.21,1.82-.54v-1.7h-1.69v-1.02h2.79Z" style="fill:#040000;"/><rect x="254.36" y="45.94" width="1.3" height="8.34" style="fill:#040000;"/><polygon points="260.3 45.94 263.99 52.3 263.99 45.94 265.2 45.94 265.2 54.28 263.87 54.28 260.15 47.91 260.15 54.28 258.92 54.28 258.92 45.94 260.3 45.94" style="fill:#040000;"/><polygon points="273.11 49.4 273.11 50.51 269.75 50.51 269.75 53.17 273.51 53.17 273.51 54.28 268.46 54.28 268.46 45.94 273.4 45.94 273.4 47.03 269.75 47.03 269.75 49.4 273.11 49.4" style="fill:#040000;"/><polygon points="280.81 49.4 280.81 50.51 277.45 50.51 277.45 53.17 281.21 53.17 281.21 54.28 276.17 54.28 276.17 45.94 281.1 45.94 281.1 47.03 277.45 47.03 277.45 49.4 280.81 49.4" style="fill:#040000;"/><path d="M285.65,45.94c.46,0,1.07,0,1.53,.06,.34,.06,1.34,.2,1.88,1.13,.22,.39,.33,.83,.32,1.28,0,.2-.02,.82-.37,1.35-.18,.27-.41,.49-.67,.67-.17,.11-.36,.2-.54,.27l2.06,3.58h-1.52l-1.9-3.37h-1.29v3.37h-1.29v-8.34h1.79Zm.74,3.86c.34-.02,1.67-.05,1.66-1.42,0-.67-.38-.99-.6-1.11-.47-.27-1.29-.22-1.78-.24h-.52v2.76h1.24Z" style="fill:#040000;"/><polygon points="296.88 49.4 296.88 50.51 293.53 50.51 293.53 53.17 297.29 53.17 297.29 54.28 292.24 54.28 292.24 45.94 297.18 45.94 297.18 47.03 293.53 47.03 293.53 49.4 296.88 49.4" style="fill:#040000;"/><path d="M302.32,45.94c1.36,.05,2,.32,2.52,.72,.6,.46,1.52,1.54,1.51,3.45,0,1.17-.38,2.43-1.26,3.25-1.02,.94-2.34,.92-3.6,.92h-1.52v-8.34h2.35Zm-.39,7.23c.65,0,.95,0,1.25-.09,.58-.13,1.39-.52,1.71-1.87,.08-.36,.12-.74,.12-1.11,0-1.2-.41-2.53-1.7-2.92-.44-.13-.83-.14-1.7-.14h-.37v6.13h.69Z" style="fill:#040000;"/><polygon points="314.1 45.94 315.7 52.73 317.33 45.94 318.44 45.94 320.08 52.73 321.7 45.94 322.89 45.94 320.82 54.3 319.38 54.3 317.88 48.36 316.39 54.3 314.95 54.3 312.88 45.94 314.1 45.94" style="fill:#040000;"/><rect x="325.27" y="45.94" width="1.3" height="8.34" style="fill:#040000;"/><polygon points="334.67 45.94 334.67 47.03 332.48 47.03 332.48 54.28 331.19 54.28 331.19 47.03 329 47.03 329 45.94 334.67 45.94" style="fill:#040000;"/><polygon points="341.98 49.39 341.98 45.94 343.27 45.94 343.27 54.28 341.98 54.28 341.98 50.46 338.39 50.46 338.39 54.28 337.09 54.28 337.09 45.94 338.39 45.94 338.39 49.39 341.98 49.39" style="fill:#040000;"/><path d="M301.03,.43c4.93,0,8.44,3.2,8.44,7.78s-3.52,7.74-8.44,7.74h-4.05v8.69h-4.5V.43h8.55Zm-.63,11.86c2.6,0,4.43-1.66,4.43-4.08s-1.83-4.12-4.43-4.12h-3.41V12.29h3.41Z" style="fill:#040000;"/><path d="M317.7,7.05v1.76c1.27-1.41,2.81-2.18,4.33-2.18,.49,0,.98,.04,1.48,.18v4.01c-.52-.14-1.05-.21-1.58-.21-1.48,0-3.06,.81-4.22,2.29v11.75h-4.5V7.05h4.49Z" style="fill:#040000;"/><path d="M334.2,6.62c5.31,0,9.04,3.8,9.04,9.22s-3.73,9.22-9.04,9.22-9.08-3.84-9.08-9.22,3.76-9.22,9.08-9.22Zm0,14.67c2.6,0,4.43-2.22,4.43-5.45s-1.83-5.45-4.43-5.45-4.47,2.22-4.47,5.45,1.83,5.46,4.47,5.46h0Z" style="fill:#040000;"/><path d="M157.45,.38c-3.51,0-7.02,.44-9.24,2.63-2.22,2.18-3.08,5.47-3.08,9.49s.76,7.25,2.99,9.43,5.82,2.71,9.33,2.71,7-.45,9.22-2.63,3.1-5.49,3.1-9.51-.78-7.23-3-9.41-5.81-2.71-9.32-2.71Zm5.32,17.92c-1.23,1.41-3.48,1.66-5.32,1.66s-4.08-.25-5.32-1.66-1.32-3.36-1.32-5.81,.08-4.34,1.32-5.75,3.22-1.66,5.32-1.66,4.09,.25,5.32,1.66c1.23,1.41,1.32,3.31,1.32,5.75s-.08,4.39-1.31,5.8h-.01ZM108.83,.81h-4.97c-.21,0-.38,.17-.39,.38V23.85c0,.21,.18,.38,.39,.38h4.97c.21,0,.38-.17,.39-.38V1.19c0-.21-.18-.38-.39-.38Zm-20.87,11.52L96.78,1.4c.13-.16,.1-.38-.06-.51-.06-.05-.14-.08-.23-.08h-6.36c-.15,0-.29,.07-.39,.19l-5.83,7.73-5.67-7.72c-.09-.12-.24-.2-.39-.2h-6.38c-.2,0-.36,.16-.36,.36,0,.08,.03,.16,.08,.23l8.93,11.13-8.95,11.11c-.12,.16-.09,.39,.07,.51,.06,.05,.14,.07,.22,.07h6.38c.16,0,.3-.07,.39-.2l5.96-7.7,5.64,7.7c.09,.12,.24,.2,.39,.2h6.3c.2,0,.36-.16,.36-.36,0-.08-.03-.16-.08-.22,0,0-8.84-11.31-8.84-11.31ZM208.9,2.53c-2.02-1.88-5.27-2.11-7.9-2.11-3.39,0-5.56,.72-6.87,1.4h-.91c-1.28-.71-3.54-1.4-7.1-1.4-2.63,0-5.85,.19-7.84,1.86-1.64,1.38-2.02,3.22-2.02,6.99v14.56c0,.21,.18,.38,.39,.38h4.97c.21,0,.38-.17,.39-.38V11.85c0-2.16-.08-4.41,.38-5.26,.36-.65,.93-1.38,3.63-1.38,3.22,0,3.97,.23,4.48,1.65,.12,.34,.18,.82,.21,1.4v15.58c0,.21,.18,.38,.39,.38h4.97c.21,0,.38-.17,.39-.38V8.26c.03-.58,.09-1.06,.21-1.4,.51-1.42,1.27-1.65,4.48-1.65,2.7,0,3.27,.73,3.63,1.38,.47,.84,.38,3.09,.38,5.26v11.98c0,.21,.18,.38,.39,.38h4.97c.21,0,.38-.17,.39-.38V10.16c0-3.91-.14-5.92-1.98-7.63h-.03Zm-71.27,1.39C135.33,.76,131.18-.2,126.88,.03c-4.36,.24-7.4,1.16-8.18,1.45-.48,.18-.42,.6-.43,.85-.02,.84-.08,3-.08,3.87,0,.39,.48,.57,.88,.43,1.59-.56,4.53-1.46,6.89-1.66,2.55-.21,6.01,0,6.97,1.45,.46,.69,.48,1.74,.53,2.81-1.59-.14-3.95-.35-6.28-.22-1.82,.1-5.31,.25-7.37,1.35-1.67,.89-2.65,1.7-3.17,3.2-.42,1.21-.53,2.67-.4,3.86,.31,2.71,1.25,4.06,2.52,5,2.01,1.48,4.54,2.27,9.77,2.15,6.96-.15,8.8-2.4,9.72-4,1.57-2.72,1.3-7.02,1.25-9.66-.02-1.09-.18-4.68-1.86-7h0Zm-4.54,14.3c-.66,1.38-3,1.6-4.39,1.66-2.57,.12-4.46,.01-5.68-.59-.81-.4-1.4-1.32-1.46-2.36-.05-.89-.03-1.34,.37-1.87,.9-1.18,3.26-1.43,5.68-1.52,1.63-.06,4.13,.12,5.97,.34,0,1.77-.13,3.56-.5,4.34h0ZM224.11,.81h-4.97c-.21,0-.38,.17-.39,.38h0V23.85c0,.21,.18,.38,.39,.38h4.97c.21,0,.38-.17,.39-.38V1.19c0-.21-.18-.38-.39-.38Z" style="fill:#040000;"/><path d="M368.1,66.98c9.27,0,16.8-7.52,16.8-16.79s-7.52-16.8-16.8-16.8-16.8,7.52-16.8,16.8,7.52,16.79,16.8,16.79Z" style="fill:#e60012;"/><path d="M381.46,51.14s-.44,.32-.75,.32c-.24,0-.37-.2-.37-.41,0-.49,.76-2.88,.76-2.88l-1.86,.03-.1,.32s-.27-.55-1.25-.55c-1.89,0-2.93,1.63-2.98,2.59,0,.21-.01,.24-.01,.24-.04,.05-.71,.81-1.53,.81-.66,0-.77-.55-.77-.9,0-.38,.32-1.89,1.21-1.89,.49,0,.79,.42,.79,.42l.26-.86s-.42-.32-1.27-.33c-1.83,0-3.08,1.37-3.12,2.61,0,.18-.02,.24-.01,.26-.06,.07-.51,.59-1.1,.59-.4,0-.4-.31-.4-.45,0-.19,.79-2.88,.79-2.88l-2.07,.03-.74,2.62c-.81,.54-1.75,.86-2.72,.94-.82,.06-1.1-.44-1.1-.73v-.12s.33,.02,.58,.02c.19,0,2.61-.17,2.61-1.65,0-.84-.84-1.17-1.91-1.17-1.97,0-3.36,1.22-3.36,2.68,0,1.32,1.13,1.9,2.59,1.9,1.66,0,3.28-1.01,3.28-1.01,0,0,.09,1.01,1.4,1.01s2.41-1.01,2.41-1.01c0,0,.59,.97,1.93,.97s2.43-1.11,2.43-1.11c0,0,.37,1.05,1.73,1.05,.62,0,1.21-.25,1.63-.7,0,0,.3,.7,1.23,.7,1.13,0,1.98-.8,1.98-.8l-.2-.65h0Zm-16.95-2.44c.28,.02,.47,.22,.46,.42-.05,1.31-1.67,1.11-1.67,1.11,0,0,.26-1.59,1.21-1.53h0Zm13.01,2.89c-.51,0-.51-.56-.51-.72,0-.43,.34-2.13,1.26-2.13,.32,0,.59,.25,.6,.57,0,.06-.23,2.28-1.35,2.28h0Z" style="fill:#fff;"/><path d="M381.83,52.91s-4.35,1.51-12.64,1.41c-5.72-.07-10.08-1.76-10.08-1.76,0,0,.14-.28,.23-.46,.57-1.17,1.25-3.54,1.25-3.54,0,0,3.93-1.1,3.93-4.22,0-.99-.92-1.62-1.83-1.66-3.17-.12-4.05,4.39-4.24,5.16-.01,.06-.02,.07-.02,.07-.98-.13-1.53-.33-1.53-.33l-.22,.61c.66,.31,1.62,.41,1.62,.41-.19,1.21-1.13,3.5-1.13,3.5-.63-.19-1.29-.28-1.94-.29-1.4,0-1.88,.66-1.91,1.08-.09,1.08,1.26,1.59,2.21,1.59,1.85,0,2.81-1,2.81-1,0,0,5.2,1.96,10.62,1.96,7.09,0,13.08-1.89,13.08-1.89l-.2-.65h0Zm-18.99-9.33c.61,0,.81,.49,.76,.94-.3,2.61-2.89,3.21-2.89,3.21,0,0,.65-4.14,2.13-4.14h0Zm-7.72,10.06c-.52,.02-.86-.33-.86-.53,0-.43,.53-.5,.86-.47,.52,.03,1.02,.14,1.51,.32,0,0-.82,.66-1.51,.68Z" style="fill:#fff;"/><path d="M369.14,45.72c-.66,0-1.15,.27-1.15,.89s.56,.8,1.15,.8,1.12-.28,1.12-.91-.64-.77-1.12-.77h0Z" style="fill:#fff;"/><path d="M241.73,8.66V4.51l7.46-4.08h3.06V24.63h-4.61V5.39l-5.91,3.27Z" style="fill:#040000;"/><path d="M266.36,10.57c2.57,0,4.36-1.44,4.36-3.47,0-1.85-1.51-3.16-3.67-3.16-1.78,0-3.6,.62-5.42,1.72V1.66c1.92-.89,3.95-1.37,5.9-1.37,4.53,0,7.65,2.61,7.65,6.45,0,2.44-1.44,4.56-3.71,5.39,2.61,.93,4.22,3.16,4.22,5.9,0,3.95-3.4,6.69-8.34,6.69-2.06,0-4.19-.51-6.28-1.51v-4.08c1.96,1.27,3.84,1.92,5.7,1.92,2.57,0,4.39-1.41,4.39-3.43s-1.85-3.57-4.56-3.57h-1.34v-3.47h1.1Z" style="fill:#040000;"/></g></g></svg>