<?xml version="1.0" encoding="UTF-8"?><svg id="a" xmlns="http://www.w3.org/2000/svg" width="456" height="25" xmlns:xlink="http://www.w3.org/1999/xlink" viewBox="0 0 456 25"><defs><clipPath id="b"><rect y="0" width="251.75" height="25" style="fill:none;"/></clipPath></defs><g style="clip-path:url(#b);"><path d="M173.77,1.06c4.79,0,8.21,3.11,8.21,7.56s-3.42,7.52-8.21,7.52h-3.93v8.45h-4.38V1.06h8.31Zm-.62,11.53c2.53,0,4.31-1.61,4.31-3.97s-1.78-4-4.31-4h-3.32v7.97h3.32Z"/><path d="M189.6,25c-3.18,0-5.44-2.09-5.44-5.1,0-3.56,3.35-6.02,8.24-6.02,.68,0,1.37,.03,2.12,.07v-.79c0-1.61-1.3-2.7-3.21-2.7-1.78,0-3.73,.55-5.68,1.64v-3.63c2.09-.96,4.17-1.4,6.19-1.4,4.17,0,6.87,2.6,6.87,6.29v11.22h-4.17v-1.37c-1.5,1.16-3.18,1.78-4.92,1.78m1.44-3.39c1.2,0,2.43-.62,3.49-1.68v-3.35c-.62-.07-1.23-.1-1.91-.1-2.46,0-4.14,1.16-4.14,2.8,0,1.37,1.06,2.33,2.57,2.33"/><path d="M214.26,24.59v-1.2c-1.33,1.06-2.84,1.61-4.34,1.61-4.55,0-7.73-3.69-7.73-8.96s3.18-8.96,7.73-8.96c1.5,0,3.01,.55,4.34,1.57V0h4.41V24.59h-4.41Zm-3.39-3.35c1.2,0,2.39-.51,3.39-1.54v-7.32c-.99-1.03-2.19-1.54-3.39-1.54-2.5,0-4.21,2.12-4.21,5.2s1.71,5.2,4.21,5.2"/><path d="M240.6,10.6c1.2-.82,2.46-1.23,3.86-1.23,4.34,0,7.28,3.08,7.28,7.49,0,4.79-3.49,8.14-8.45,8.14s-8.11-3.69-8.11-9.03c0-5.03,2.84-10.33,7.97-14.91h5.57c-3.93,3.04-6.7,6.36-8.14,9.54m-1.06,5.92c0,2.77,1.61,4.72,3.86,4.72s4-1.74,4-4.21c0-2.33-1.57-4-3.86-4-1.33,0-2.67,.62-3.83,1.78-.14,.55-.17,1.13-.17,1.71"/><path d="M83.94,1.01c-3.41,0-6.83,.43-8.98,2.55-2.16,2.12-2.99,5.31-2.99,9.22s.74,7.05,2.91,9.17c2.16,2.12,5.66,2.63,9.07,2.63s6.81-.43,8.97-2.56c2.16-2.12,3.01-5.33,3.01-9.24s-.76-7.03-2.91-9.15c-2.16-2.12-5.65-2.63-9.06-2.63m5.17,17.42c-1.2,1.37-3.38,1.62-5.17,1.62s-3.97-.24-5.17-1.61c-1.2-1.37-1.28-3.26-1.28-5.64s.08-4.22,1.28-5.59c1.2-1.37,3.13-1.61,5.17-1.61s3.97,.24,5.17,1.61c1.2,1.37,1.28,3.21,1.28,5.59s-.08,4.27-1.28,5.64M36.68,1.43h-4.83c-.21,0-.37,.16-.37,.37V23.82c0,.2,.17,.36,.37,.36h4.83c.2,0,.37-.17,.37-.36V1.8c0-.2-.17-.37-.37-.37M16.39,12.62L24.96,2.01c.19-.23,.02-.57-.27-.57h-6.18c-.15,0-.29,.07-.37,.19l-5.67,7.51L6.94,1.62c-.09-.12-.23-.19-.38-.19H.36C.06,1.43-.1,1.77,.08,2L8.77,12.82,.07,23.62c-.18,.23-.01,.57,.28,.57H6.55c.15,0,.29-.07,.38-.19l5.79-7.48,5.48,7.49c.09,.12,.23,.19,.38,.19h6.12c.29,0,.46-.34,.28-.57l-8.6-11ZM133.95,3.1c-1.97-1.83-5.12-2.05-7.68-2.05-3.3,0-5.4,.7-6.68,1.36h-.88c-1.25-.69-3.44-1.36-6.9-1.36-2.56,0-5.69,.19-7.62,1.81-1.6,1.34-1.97,3.13-1.97,6.79v14.16c0,.2,.17,.36,.37,.36h4.82c.21,0,.38-.17,.38-.36v-.05s0-8.95,0-11.6c0-2.1-.08-4.29,.37-5.11,.35-.64,.91-1.35,3.53-1.35,3.13,0,3.86,.22,4.36,1.6,.12,.33,.17,.79,.2,1.36v15.14c0,.2,.17,.36,.37,.36h4.83c.21,0,.37-.17,.37-.36V8.67c.03-.57,.08-1.03,.2-1.36,.49-1.38,1.23-1.6,4.36-1.6,2.62,0,3.18,.71,3.53,1.35,.45,.82,.37,3.01,.37,5.11,0,2.65,0,11.6,0,11.6v.05c0,.2,.17,.36,.38,.36h4.82c.21,0,.37-.17,.37-.36V10.52c0-3.81-.12-5.75-1.91-7.41m-69.28,1.35c-2.23-3.07-6.26-4.01-10.45-3.78-4.24,.23-7.2,1.13-7.95,1.41-.47,.18-.41,.58-.42,.82-.02,.81-.08,2.91-.08,3.77,0,.38,.46,.55,.85,.41,1.55-.55,4.4-1.42,6.7-1.61,2.48-.2,5.84,0,6.77,1.41,.44,.67,.47,1.69,.52,2.74-1.55-.14-3.84-.34-6.11-.21-1.77,.1-5.17,.24-7.16,1.31-1.62,.87-2.58,1.65-3.09,3.11-.41,1.18-.52,2.59-.39,3.75,.3,2.63,1.21,3.94,2.45,4.86,1.95,1.44,4.41,2.2,9.49,2.09,6.77-.15,8.55-2.34,9.45-3.89,1.53-2.65,1.26-6.82,1.22-9.38-.02-1.06-.18-4.56-1.81-6.81m-4.41,13.89c-.64,1.34-2.91,1.55-4.27,1.61-2.49,.11-4.33,.01-5.52-.57-.79-.39-1.36-1.28-1.42-2.29-.05-.86-.03-1.31,.36-1.82,.88-1.14,3.17-1.39,5.52-1.48,1.59-.06,4.02,.12,5.81,.33-.01,1.73-.13,3.46-.49,4.22M148.73,1.43h-4.83c-.21,0-.37,.16-.37,.37V23.82c0,.2,.17,.36,.37,.36h4.83c.2,0,.37-.17,.37-.36V1.8c0-.2-.17-.37-.37-.37"/></g></svg>