<?xml version="1.0" encoding="UTF-8"?><svg id="a" xmlns="http://www.w3.org/2000/svg" width="456" height="25" viewBox="0 0 456 25"><polygon points="196.43 1.06 191 18.71 185.52 1.06 181.32 1.06 175.88 18.71 170.37 1.06 165.72 1.06 173.76 24.59 177.97 24.59 183.44 6.94 188.91 24.59 193.08 24.59 201.09 1.06 196.43 1.06"/><path d="M208.61,7.08c-1,0-2.03,.13-3.08,.38-1.12,.23-2.18,.58-3.18,1.06v3.73c.98-.57,1.95-.99,2.91-1.27,.96-.27,1.89-.41,2.8-.41,.96,.02,1.72,.26,2.29,.72,.52,.46,.82,1.09,.89,1.92v.72c-.73-.07-1.44-.1-2.12-.1-2.53,.05-4.51,.6-5.95,1.68-1.48,1.12-2.25,2.59-2.29,4.41,.05,1.53,.56,2.75,1.54,3.66,.96,.89,2.26,1.37,3.9,1.44,.84,0,1.69-.14,2.53-.41,.84-.3,1.64-.73,2.39-1.3v1.3h4.28V13.44c-.02-1.92-.65-3.44-1.88-4.58-1.21-1.12-2.88-1.71-5.03-1.78Zm2.63,12.79c-.55,.5-1.11,.91-1.68,1.23-.55,.27-1.13,.41-1.74,.41-.75-.02-1.35-.24-1.78-.65-.46-.43-.68-.98-.68-1.64,.05-.82,.41-1.46,1.09-1.92,.71-.46,1.66-.71,2.87-.75,.43,0,.75,.01,.96,.03,.3,0,.62,.02,.96,.07v3.21Z"/><path d="M225.2,2.67h-4.55V7.49h-2.91v3.63h2.91v8.31c.05,1.69,.59,3.02,1.64,4,1.07,1,2.46,1.53,4.17,1.57,.55,0,1.14-.07,1.78-.21,.52-.07,1.13-.24,1.81-.51v-3.76c-.43,.21-.84,.38-1.23,.51-.41,.11-.8,.17-1.16,.17-.78-.05-1.37-.27-1.78-.68-.46-.43-.68-.99-.68-1.68v-7.73h4.86v-3.63h-4.86V2.67Z"/><path d="M241.17,7.08c-2.64,.02-4.77,.85-6.36,2.5-1.64,1.64-2.47,3.8-2.5,6.46,.02,2.67,.85,4.81,2.5,6.43,1.6,1.66,3.72,2.51,6.36,2.53,.84,0,1.71-.1,2.6-.31,.8-.16,1.65-.46,2.56-.89v-4.07c-.68,.48-1.41,.84-2.19,1.09-.78,.25-1.5,.38-2.19,.38-1.5-.02-2.7-.5-3.59-1.44-.91-.93-1.38-2.18-1.4-3.73,.05-1.55,.51-2.79,1.4-3.73,.89-.93,2.09-1.41,3.59-1.44,.68,0,1.41,.13,2.19,.38,.78,.25,1.5,.62,2.19,1.09v-4.07c-.91-.43-1.77-.73-2.56-.89-.89-.21-1.76-.31-2.6-.31Z"/><path d="M259.6,7.08c-.87,0-1.71,.15-2.53,.44-.87,.34-1.66,.81-2.39,1.4V0h-4.55V24.59h4.55V12.79c.5-.55,1.08-.98,1.74-1.3,.57-.32,1.17-.48,1.81-.48,.87,.05,1.57,.33,2.12,.85,.5,.52,.77,1.25,.82,2.19v10.53h4.51V13.27c0-1.85-.56-3.33-1.68-4.45-1.12-1.16-2.59-1.74-4.41-1.74Z"/><path d="M292.53,11.29c-3.31-.66-5.2-1.94-5.68-3.83,.05-.96,.43-1.71,1.16-2.26,.75-.55,1.76-.83,3.01-.85,1,0,2.01,.15,3.01,.44,.98,.3,1.98,.75,3.01,1.37V1.95c-1.03-.46-2.09-.79-3.18-.99-1.05-.21-2.11-.31-3.18-.31-2.53,.02-4.57,.66-6.12,1.92-1.55,1.23-2.34,2.88-2.36,4.96,.5,3.72,2.39,5.89,5.68,6.53,3.31,.66,5.2,1.97,5.68,3.93-.02,1.03-.41,1.82-1.16,2.39-.75,.57-1.79,.88-3.11,.92-1.07,0-2.17-.18-3.28-.55-1.19-.39-2.29-.92-3.32-1.61v4.27c1.14,.52,2.29,.92,3.45,1.2,1.21,.25,2.37,.38,3.49,.38,2.58-.02,4.64-.68,6.19-1.98,1.57-1.3,2.37-3,2.39-5.1-.48-3.76-2.37-5.97-5.68-6.63Z"/><polygon points="303.03 5.06 303.03 9.2 308.74 6.02 308.74 24.59 313.36 24.59 313.36 1.06 310.28 1.06 303.03 5.06"/><path d="M83.93,1.01l.02,.03c-3.41,0-6.83,.44-8.98,2.56s-2.99,5.31-2.99,9.22,.76,7.02,2.88,9.14,5.66,2.65,9.07,2.65,6.81-.44,8.97-2.56,3.01-5.31,3.01-9.24-.76-7.02-2.91-9.15c-2.16-2.12-5.65-2.65-9.06-2.65Zm5.21,17.42h-.04c-1.2,1.38-3.38,1.59-5.18,1.59s-3.97-.24-5.17-1.59c-1.2-1.35-1.25-3.25-1.25-5.64s.08-4.22,1.28-5.6c1.2-1.38,3.13-1.59,5.17-1.59s3.97,.24,5.18,1.59,1.27,3.22,1.27,5.6-.07,4.25-1.27,5.64Z"/><path d="M64.68,4.47v-.02c-2.24-3.07-6.27-4.01-10.45-3.79-2.71,.11-5.39,.58-7.96,1.41-.47,.18-.41,.58-.41,.83,0,.81-.08,2.91-.07,3.76,0,.38,.46,.53,.85,.41,2.17-.78,4.41-1.32,6.7-1.59,2.48-.2,5.84,0,6.77,1.41,.44,.67,.46,1.69,.53,2.74-2.03-.21-4.07-.29-6.11-.21-1.77,.1-5.17,.24-7.16,1.31-1.62,.87-2.58,1.66-3.09,3.12-.39,1.21-.52,2.49-.39,3.75,.3,2.65,1.21,3.94,2.45,4.86,1.95,1.44,4.41,2.2,9.5,2.09,6.77-.14,8.55-2.34,9.44-3.89,1.53-2.65,1.27-6.83,1.22-9.39,0-1.06-.18-4.56-1.81-6.81Zm-4.4,13.85l-.02,.02c-.64,1.34-2.91,1.55-4.25,1.59-2.5,.12-4.33,0-5.52-.57-.85-.46-1.38-1.33-1.41-2.29-.05-.86-.03-1.31,.36-1.82,.88-1.15,3.19-1.39,5.52-1.48,1.94-.02,3.88,.09,5.81,.33,0,1.73-.13,3.46-.49,4.22Z"/><path d="M36.69,1.43l.02,.02h-4.85c-.2,0-.37,.16-.37,.36,0,0,0,0,0,0V23.82c0,.2,.16,.37,.37,.37,0,0,0,0,0,0h4.83c.2,0,.37-.16,.37-.37V1.79c0-.2-.17-.37-.37-.37Z"/><path d="M16.39,12.62L24.95,2c.12-.15,.1-.38-.05-.5-.06-.05-.14-.08-.22-.08h-6.16c-.15,0-.29,.07-.38,.19l-5.67,7.51L6.94,1.62c-.09-.12-.23-.19-.38-.2H.36c-.19,0-.35,.15-.36,.34,0,.08,.03,.16,.08,.23L8.77,12.82,.08,23.62c-.12,.15-.09,.37,.06,.49,.06,.05,.14,.08,.22,.08H6.55c.15,0,.29-.07,.38-.2l5.81-7.48,5.48,7.49c.09,.12,.23,.19,.38,.19h6.1c.19,0,.35-.16,.35-.35,0-.08-.03-.16-.08-.22l-8.6-11Z"/><path d="M148.75,1.43h-4.83c-.2,0-.37,.16-.37,.36,0,0,0,0,0,0V23.82c0,.2,.16,.37,.37,.37,0,0,0,0,0,0h4.83c.21,0,.37-.16,.38-.37h0V1.79c0-.21-.17-.37-.38-.37Z"/><path d="M133.97,3.1c-1.96-1.83-5.12-2.05-7.68-2.05-3.3,0-5.4,.71-6.68,1.36h-.89c-1.25-.68-3.45-1.36-6.9-1.36-2.56,0-5.69,.19-7.62,1.81-1.59,1.34-1.96,3.13-1.96,6.8v14.15c0,.2,.16,.37,.37,.37,0,0,0,0,0,0h4.83c.21,0,.37-.16,.38-.37h0V12.16c0-2.12-.08-4.3,.37-5.11,.36-.63,.91-1.34,3.53-1.34,3.13,0,3.87,.22,4.36,1.59,.13,.44,.2,.9,.2,1.36v15.15c0,.2,.16,.37,.37,.37,0,0,0,0,0,0h4.83c.2,0,.37-.16,.37-.37V8.67c0-.46,.07-.92,.2-1.36,.49-1.39,1.23-1.59,4.36-1.59,2.62,0,3.19,.71,3.53,1.34,.46,.82,.37,3.01,.37,5.11v11.64c0,.21,.17,.37,.38,.37h4.83c.2,0,.37-.16,.37-.37V10.54c0-3.81-.12-5.76-1.91-7.43h0Z"/><path d="M344.28,3.21c-1.53-1.41-3.5-2.13-5.92-2.15h-8.45V24.59h4.55v-8.41h3.9c2.44-.02,4.41-.73,5.92-2.12,1.53-1.37,2.3-3.18,2.33-5.44-.05-2.26-.82-4.06-2.33-5.4Zm-3.52,8.21c-.75,.66-1.77,1.03-3.04,1.09h-3.25V4.75h3.25c1.28,.02,2.29,.38,3.04,1.06,.73,.68,1.13,1.63,1.2,2.84-.07,1.16-.47,2.09-1.2,2.77Z"/><path d="M358.78,7.08c-.71,0-1.43,.17-2.15,.51-.71,.37-1.37,.89-1.98,1.57v-1.68h-4.55V24.59h4.55V13.23c.57-.71,1.2-1.24,1.88-1.61,.73-.39,1.45-.58,2.15-.58,.27,0,.54,.02,.79,.07,.27,.02,.51,.07,.72,.14V7.25c-.25-.09-.48-.15-.68-.17h-.72Z"/><path d="M376.98,9.58c-1.62-1.64-3.74-2.47-6.36-2.5-2.62,0-4.77,.83-6.43,2.5-1.6,1.64-2.42,3.8-2.46,6.46,.05,2.69,.87,4.83,2.46,6.43,1.66,1.69,3.81,2.53,6.43,2.53,2.62-.02,4.74-.87,6.36-2.53,1.62-1.6,2.44-3.74,2.46-6.43-.02-2.67-.84-4.82-2.46-6.46Zm-3.35,10.19c-.75,.94-1.76,1.41-3.01,1.44-1.28-.02-2.29-.5-3.04-1.44-.75-.91-1.15-2.15-1.2-3.73,.05-1.57,.44-2.82,1.2-3.73,.75-.93,1.77-1.41,3.04-1.44,1.25,.02,2.26,.5,3.01,1.44,.75,.91,1.15,2.15,1.2,3.73-.05,1.57-.44,2.82-1.2,3.73Z"/></svg>